<svg viewBox="0 0 16 16" width="16" height="16" fill="#CBCB41" xmlns="http://www.w3.org/2000/svg">
  <path d="M9.5 1H3a1 1 0 0 0-1 1v12a1 1 0 0 0 1 1h10a1 1 0 0 0 1-1V5.5L9.5 1zm-.5 1v3.5h3.5L9 2z" fill-opacity="0.3"/>
  <path d="M5.5 6c-.3 0-.5.2-.5.5v2c0 .3-.2.5-.5.5.3 0 .5.2.5.5v2c0 .3.2.5.5.5h.5v-1h-.5V9.5c0-.3-.2-.5-.5-.5.3 0 .5-.2.5-.5V7h.5V6h-.5zm5 0h-.5v1h.5v2c0 .3.2.5.5.5-.3 0-.5.2-.5.5v2h-.5v1h.5c.3 0 .5-.2.5-.5v-2c0-.3.2-.5.5-.5-.3 0-.5-.2-.5-.5v-2c0-.3-.2-.5-.5-.5z" fill="#CBCB41"/>
</svg>
