<svg viewBox="0 0 16 16" width="16" height="16" fill="#A06CD5" xmlns="http://www.w3.org/2000/svg">
  <path d="M9.5 1H3a1 1 0 0 0-1 1v12a1 1 0 0 0 1 1h10a1 1 0 0 0 1-1V5.5L9.5 1zm-.5 1v3.5h3.5L9 2z" fill-opacity="0.3"/>
  <rect x="4.5" y="7.5" width="2" height="2" fill="#A06CD5"/>
  <rect x="7" y="7.5" width="2" height="2" fill="#A06CD5" fill-opacity="0.6"/>
  <rect x="9.5" y="7.5" width="2" height="2" fill="#A06CD5"/>
  <rect x="4.5" y="10" width="2" height="2" fill="#A06CD5" fill-opacity="0.6"/>
  <rect x="7" y="10" width="2" height="2" fill="#A06CD5"/>
  <rect x="9.5" y="10" width="2" height="2" fill="#A06CD5" fill-opacity="0.6"/>
</svg>
